<svg width="284" height="140" viewBox="0 0 284 140" fill="none" xmlns="http://www.w3.org/2000/svg">
<rect opacity="0.3" width="284" height="140" rx="8" fill="#F0F0F0"/>
<path d="M224.131 81.7126C224.611 80.9686 224.887 80.1526 224.959 79.2646C225.031 78.3766 225.067 77.5006 225.067 76.6366C224.371 77.5246 223.519 78.1486 222.511 78.5086C221.503 78.8686 220.411 79.0486 219.235 79.0486C217.867 79.0486 216.679 78.8446 215.671 78.4366C214.687 78.0286 213.907 77.4046 213.331 76.5646C212.755 75.7966 212.359 74.8966 212.143 73.8646C211.927 72.8086 211.819 71.6686 211.819 70.4446V59.7886H216.895V69.8326C216.895 70.4806 216.943 71.1166 217.039 71.7406C217.159 72.3406 217.399 72.8446 217.759 73.2526C218.335 74.1166 219.379 74.5486 220.891 74.5486C221.611 74.5486 222.283 74.4046 222.907 74.1166C223.531 73.8046 224.023 73.3246 224.383 72.6766C224.695 72.1246 224.887 71.5486 224.959 70.9486C225.031 70.3246 225.067 69.6526 225.067 68.9326V59.7886H230.179V75.3766C230.179 76.2406 230.167 77.1286 230.143 78.0406C230.143 78.9286 230.071 79.8046 229.927 80.6686C229.807 81.5326 229.579 82.3726 229.243 83.1886C228.907 84.0046 228.439 84.7606 227.839 85.4566C226.999 86.4166 225.895 87.1846 224.527 87.7606C223.183 88.3366 221.563 88.6126 219.667 88.5886C218.275 88.6126 216.895 88.4206 215.527 88.0126C214.159 87.6286 212.899 87.0646 211.747 86.3206L213.367 82.0006C213.991 82.4566 214.819 82.8766 215.851 83.2606C216.907 83.6446 218.143 83.8366 219.559 83.8366C220.711 83.8366 221.647 83.6446 222.367 83.2606C223.111 82.9006 223.699 82.3846 224.131 81.7126Z" fill="#969DA0"/>
<path d="M200.717 74.5486C201.677 74.5486 202.433 74.3206 202.985 73.8646C203.561 73.4086 203.909 72.8926 204.029 72.3166H209.357C209.189 73.5406 208.841 74.5726 208.313 75.4126C207.785 76.2526 207.125 76.9486 206.333 77.5006C205.565 78.0526 204.689 78.4486 203.705 78.6886C202.721 78.9286 201.701 79.0486 200.645 79.0486C199.061 79.0486 197.681 78.8326 196.505 78.4006C195.353 77.9446 194.393 77.2966 193.625 76.4566C192.857 75.5926 192.269 74.5606 191.861 73.3606C191.477 72.1366 191.285 70.7686 191.285 69.2566C191.285 67.7926 191.501 66.4486 191.933 65.2246C192.365 64.0006 192.977 62.9566 193.769 62.0926C194.585 61.2286 195.581 60.5686 196.757 60.1126C197.933 59.6326 199.277 59.3926 200.789 59.3926C201.893 59.3926 202.925 59.5246 203.885 59.7886C204.869 60.0526 205.733 60.4606 206.477 61.0126C207.245 61.5646 207.869 62.2726 208.349 63.1366C208.853 63.9766 209.189 64.9846 209.357 66.1606H204.029C203.909 65.5846 203.549 65.0686 202.949 64.6126C202.373 64.1566 201.617 63.9286 200.681 63.9286C199.889 63.9286 199.205 64.0726 198.629 64.3606C198.053 64.6486 197.597 65.0446 197.261 65.5486C196.925 66.0526 196.685 66.6286 196.541 67.2766C196.397 67.9246 196.325 68.6086 196.325 69.3286C196.325 70.0966 196.409 70.8046 196.577 71.4526C196.745 72.0766 196.997 72.6286 197.333 73.1086C197.669 73.5646 198.113 73.9246 198.665 74.1886C199.241 74.4286 199.925 74.5486 200.717 74.5486Z" fill="#969DA0"/>
<path d="M175.83 62.2005C177.366 60.3525 179.262 59.4165 181.518 59.3925C182.742 59.3685 183.822 59.5725 184.758 60.0045C185.694 60.4125 186.45 60.9765 187.026 61.6965C187.722 62.5365 188.202 63.5205 188.466 64.6485C188.73 65.7525 188.862 66.9885 188.862 68.3565V78.7605H183.75V68.7525C183.75 68.0805 183.678 67.4445 183.534 66.8445C183.414 66.2205 183.198 65.6925 182.886 65.2605C182.574 64.8045 182.154 64.4685 181.626 64.2525C181.122 64.0365 180.546 63.9285 179.898 63.9285C179.082 63.9525 178.386 64.1325 177.81 64.4685C177.258 64.8045 176.838 65.2365 176.55 65.7645C176.262 66.2685 176.058 66.8445 175.938 67.4925C175.842 68.1165 175.794 68.7525 175.794 69.4005V78.7605H170.718V59.7885H175.578L175.83 62.2005Z" fill="#969DA0"/>
<path d="M159.301 74.9086C160.021 74.9086 160.633 74.8006 161.137 74.5846C161.665 74.3446 162.097 73.9606 162.433 73.4326H167.761C167.497 74.4166 167.089 75.2686 166.537 75.9886C166.009 76.7086 165.361 77.2966 164.593 77.7526C163.849 78.2086 163.021 78.5446 162.109 78.7606C161.197 78.9526 160.237 79.0486 159.229 79.0486C156.157 79.0486 153.829 78.1846 152.245 76.4566C150.685 74.7286 149.905 72.3046 149.905 69.1846C149.905 67.7686 150.109 66.4606 150.517 65.2606C150.949 64.0606 151.549 63.0286 152.317 62.1646C153.085 61.2766 154.033 60.5926 155.161 60.1126C156.313 59.6326 157.621 59.3926 159.085 59.3926C160.789 59.3926 162.265 59.6926 163.513 60.2926C164.761 60.8926 165.745 61.7206 166.465 62.7766C167.209 63.8086 167.701 65.0206 167.941 66.4126C168.205 67.8046 168.205 69.2926 167.941 70.8766H154.981C155.077 72.0046 155.473 72.9646 156.169 73.7566C156.865 74.5246 157.909 74.9086 159.301 74.9086ZM163.225 67.3846C163.225 66.7846 163.117 66.2566 162.901 65.8006C162.685 65.3206 162.397 64.9366 162.037 64.6486C161.677 64.3366 161.245 64.1086 160.741 63.9646C160.261 63.8206 159.757 63.7486 159.229 63.7486C157.957 63.7726 156.961 64.1206 156.241 64.7926C155.545 65.4406 155.137 66.3046 155.017 67.3846H163.225Z" fill="#969DA0"/>
<path d="M142.249 76.8165C141.529 77.6325 140.665 78.2085 139.657 78.5445C138.649 78.8805 137.557 79.0485 136.381 79.0485C135.205 79.0485 134.053 78.8685 132.925 78.5085C131.821 78.1245 130.861 77.5125 130.045 76.6725C129.133 75.7125 128.497 74.6085 128.137 73.3605C127.777 72.1125 127.597 70.8285 127.597 69.5085C127.597 66.3885 128.461 63.8925 130.189 62.0205C130.933 61.2045 131.893 60.5685 133.069 60.1125C134.269 59.6565 135.553 59.4405 136.921 59.4645C137.809 59.4165 138.769 59.5725 139.801 59.9325C140.833 60.2925 141.721 60.8925 142.465 61.7325L143.005 59.7885H147.397V77.5725C147.397 78.3405 147.349 79.0965 147.253 79.8405C147.181 80.6085 147.049 81.3405 146.857 82.0365C146.665 82.7565 146.377 83.4405 145.993 84.0885C145.561 84.8805 145.033 85.5525 144.409 86.1045C143.809 86.6565 143.137 87.1125 142.393 87.4725C141.649 87.8565 140.857 88.1325 140.017 88.3005C139.177 88.4685 138.325 88.5525 137.461 88.5525C136.357 88.5525 135.301 88.4205 134.293 88.1565C133.285 87.9165 132.361 87.5085 131.521 86.9325C130.705 86.3805 130.021 85.6725 129.469 84.8085C128.941 83.9445 128.593 82.9125 128.425 81.7125H133.825C133.921 82.2885 134.305 82.8045 134.977 83.2605C135.649 83.7165 136.465 83.9445 137.425 83.9445C138.457 83.9445 139.297 83.7405 139.945 83.3325C140.617 82.9245 141.121 82.3845 141.457 81.7125C141.793 81.0405 142.009 80.2725 142.105 79.4085C142.201 78.5445 142.249 77.6805 142.249 76.8165ZM137.533 74.5485C138.325 74.5485 139.021 74.4045 139.621 74.1165C140.245 73.8285 140.749 73.4445 141.133 72.9645C141.517 72.4605 141.805 71.8845 141.997 71.2365C142.189 70.5645 142.285 69.8565 142.285 69.1125C142.285 67.6245 141.865 66.4005 141.025 65.4405C140.209 64.4565 139.033 63.9525 137.497 63.9285C136.705 63.9285 135.997 64.0725 135.373 64.3605C134.773 64.6485 134.269 65.0325 133.861 65.5125C133.477 65.9925 133.189 66.5565 132.997 67.2045C132.805 67.8525 132.709 68.5485 132.709 69.2925C132.709 70.0845 132.805 70.8045 132.997 71.4525C133.213 72.0765 133.525 72.6285 133.933 73.1085C134.341 73.5645 134.845 73.9245 135.445 74.1885C136.045 74.4285 136.741 74.5485 137.533 74.5485Z" fill="#969DA0"/>
<path d="M120.352 76.4206C119.632 77.3806 118.756 78.0646 117.724 78.4726C116.692 78.8806 115.492 79.0726 114.124 79.0486C112.372 79.0006 110.908 78.5086 109.732 77.5726C109.108 77.0446 108.616 76.4206 108.256 75.7006C107.92 74.9566 107.752 74.0806 107.752 73.0726C107.776 72.0406 108.004 71.1286 108.436 70.3366C108.892 69.5206 109.576 68.8486 110.488 68.3206C111.256 67.9126 112.12 67.6246 113.08 67.4566C114.064 67.2886 115.132 67.2046 116.284 67.2046H120.172C120.244 66.0286 119.968 65.1526 119.344 64.5766C118.744 63.9766 117.892 63.6646 116.788 63.6406C116.428 63.6406 116.056 63.6646 115.672 63.7126C115.288 63.7606 114.928 63.8566 114.592 64.0006C114.28 64.1446 114.004 64.3486 113.764 64.6126C113.548 64.8526 113.404 65.1526 113.332 65.5126H108.112C108.232 64.3606 108.544 63.4006 109.048 62.6326C109.576 61.8406 110.236 61.2046 111.028 60.7246C111.82 60.2446 112.696 59.9086 113.656 59.7166C114.64 59.5006 115.648 59.3926 116.68 59.3926C117.256 59.3926 117.844 59.4286 118.444 59.5006C119.044 59.5486 119.632 59.6686 120.208 59.8606C120.784 60.0286 121.324 60.2686 121.828 60.5806C122.356 60.8686 122.848 61.2526 123.304 61.7326C124.12 62.6686 124.624 63.7486 124.816 64.9726C125.032 66.1726 125.128 67.3486 125.104 68.5006V78.7606H120.46L120.352 76.4206ZM120.172 70.3726H116.464C116.104 70.3726 115.696 70.4086 115.24 70.4806C114.784 70.5526 114.388 70.6846 114.052 70.8766C113.716 71.0686 113.428 71.3206 113.188 71.6326C112.972 71.9446 112.864 72.3286 112.864 72.7846C112.864 73.1686 112.936 73.5046 113.08 73.7926C113.248 74.0806 113.452 74.3206 113.692 74.5126C113.956 74.7046 114.268 74.8606 114.628 74.9806C114.988 75.0766 115.348 75.1246 115.708 75.1246C116.404 75.1486 117.052 75.0286 117.652 74.7646C118.276 74.5006 118.816 74.1286 119.272 73.6486C119.56 73.2646 119.776 72.8326 119.92 72.3526C120.088 71.8486 120.172 71.1886 120.172 70.3726Z" fill="#969DA0"/>
<path fill-rule="evenodd" clip-rule="evenodd" d="M93.9673 70.7395C93.764 74.2936 92.6148 77.7367 90.6294 80.7081C88.4318 83.9971 85.3082 86.5606 81.6537 88.0743C77.9992 89.5881 73.9778 89.9841 70.0982 89.2124C66.2186 88.4407 62.6549 86.5359 59.8579 83.7389C57.0608 80.9418 55.156 77.3782 54.3843 73.4985C53.6126 69.6189 54.0087 65.5976 55.5224 61.9431C57.0362 58.2885 59.5996 55.165 62.8886 52.9673C65.86 50.9819 69.3031 49.8328 72.8572 49.6294V59.6622C71.2839 59.8432 69.7702 60.3961 68.4443 61.282C66.7998 62.3808 65.5181 63.9426 64.7612 65.7699C64.0043 67.5972 63.8063 69.6078 64.1922 71.5476C64.578 73.4874 65.5304 75.2693 66.9289 76.6678C68.3275 78.0663 70.1093 79.0187 72.0491 79.4046C73.9889 79.7904 75.9996 79.5924 77.8268 78.8355C79.6541 78.0786 81.2159 76.7969 82.3147 75.1524C83.2006 73.8266 83.7535 72.3129 83.9345 70.7395H93.9673Z" fill="#969DA0"/>
<path fill-rule="evenodd" clip-rule="evenodd" d="M83.9947 49.5967H75.8135V59.5967H83.9947V67.7781L93.9947 67.7781V59.5967H93.9953V49.5967H92.1653H83.9947Z" fill="#969DA0"/>
</svg>
